<?xml version="1.0" encoding="utf-8"?>
<!-- Generated by IcoMoon.io -->
<!DOCTYPE svg PUBLIC "-//W3C//DTD SVG 1.1//EN" "http://www.w3.org/Graphics/SVG/1.1/DTD/svg11.dtd">
<svg version="1.1" xmlns="http://www.w3.org/2000/svg" xmlns:xlink="http://www.w3.org/1999/xlink" width="768" height="768" viewBox="0 0 768 768">
<g id="icomoon-ignore">
</g>
<path d="M128 32h512q39.75 0 67.875 28.125t28.125 67.875v512q0 39.75-28.125 67.875t-67.875 28.125h-512q-39.75 0-67.875-28.125t-28.125-67.875v-512q0-39.75 28.125-67.875t67.875-28.125zM672 557.25l-160-160-274.75 274.75h402.75q13.25 0 22.625-9.375t9.375-22.625v-82.75zM640 96h-512q-13.25 0-22.625 9.375t-9.375 22.625v512q0 13.25 9.375 22.625t22.625 9.375h18.75l365.25-365.25 160 160v-338.75q0-13.25-9.375-22.625t-22.625-9.375zM256 160q39.75 0 67.875 28.125t28.125 67.875-28.125 67.875-67.875 28.125-67.875-28.125-28.125-67.875 28.125-67.875 67.875-28.125zM256 224q-13.25 0-22.625 9.375t-9.375 22.625 9.375 22.625 22.625 9.375 22.625-9.375 9.375-22.625-9.375-22.625-22.625-9.375z"></path>
</svg>
