<?xml version="1.0" encoding="utf-8"?>
<!-- Generator: Adobe Illustrator 16.0.0, SVG Export Plug-In . SVG Version: 6.00 Build 0)  -->
<!DOCTYPE svg PUBLIC "-//W3C//DTD SVG 1.1//EN" "http://www.w3.org/Graphics/SVG/1.1/DTD/svg11.dtd">
<svg version="1.1" id="Calque_1" xmlns="http://www.w3.org/2000/svg" xmlns:xlink="http://www.w3.org/1999/xlink" x="0px" y="0px"
	 width="24px" height="24px" viewBox="0 0 24 24" enable-background="new 0 0 24 24" xml:space="preserve">
<g>
	<path d="M11.906,5C8.092,5,5,8.092,5,11.906c0,3.814,3.092,6.906,6.906,6.906c3.814,0,6.906-3.092,6.906-6.906
		C18.813,8.092,15.721,5,11.906,5z M11.906,17.625c-3.158,0-5.719-2.56-5.719-5.719c0-3.158,2.561-5.719,5.719-5.719
		c3.159,0,5.719,2.561,5.719,5.719C17.625,15.065,15.065,17.625,11.906,17.625z"/>
	<polygon points="11.188,15.438 11.188,13.938 9.2,12 11.188,10.063 11.188,8.563 7.5,12 	"/>
	<polygon points="12.757,8.563 12.757,10.063 14.744,12 12.757,13.938 12.757,15.438 16.444,12 	"/>
</g>
</svg>
