<?xml version="1.0" encoding="utf-8"?>
<!-- Generator: Adobe Illustrator 16.0.0, SVG Export Plug-In . SVG Version: 6.00 Build 0)  -->
<!DOCTYPE svg PUBLIC "-//W3C//DTD SVG 1.1//EN" "http://www.w3.org/Graphics/SVG/1.1/DTD/svg11.dtd">
<svg version="1.1" id="Calque_1" xmlns="http://www.w3.org/2000/svg" xmlns:xlink="http://www.w3.org/1999/xlink" x="0px" y="0px"
	 width="24px" height="24px" viewBox="0 0 24 24" enable-background="new 0 0 24 24" xml:space="preserve">
<g>
	<path d="M11.945,17.981c-0.391,0.021-0.65,0.291-0.637,0.571c0.016,0.279,0.334,0.406,0.613,0.393
		c0.28-0.016,0.808-0.117,0.787-0.506C12.689,18.051,12.379,17.959,11.945,17.981z"/>
	<path d="M14.605,17.187c-0.523,0.027-0.709,0.582-0.705,0.683c0.006,0.103-0.008,0.308,0.449,0.284
		c0.724-0.039,0.682-0.471,0.68-0.506C15.027,17.613,15.019,17.165,14.605,17.187z"/>
	<path d="M19.128,9.728c0-0.143,0.008-0.399-0.321-0.399c-0.348,0-1.688,0.866-2.019,0.866c-0.252,0,0.136-1.689,0.136-3.199
		c0-0.382-0.17-0.955-0.47-0.955c-0.732,0-0.821,0.657-2.411,0.657C11.524,6.697,11.221,5,9.943,5C8.826,5,8.855,7.64,8.855,7.987
		S8.941,9.493,8.41,9.493c-0.615,0-2.039-1.118-2.705-1.118c-0.267,0-0.439,0.376-0.439,1.065c0,3.139,3.613,4.563,3.711,5.015
		c0.492,2.188,1.777,3.104,3.469,3.104c2.53,0,3.248-3.126,3.396-3.214C19.229,12.374,19.128,9.871,19.128,9.728z M11.125,9.943
		c-0.351,0-0.636-0.346-0.636-0.773c0-0.085,0.012-0.167,0.032-0.244c0.053,0.046,0.119,0.075,0.191,0.075
		c0.165,0,0.299-0.144,0.299-0.322c0-0.094-0.039-0.179-0.098-0.238c0.066-0.028,0.137-0.045,0.211-0.045
		c0.352,0,0.637,0.346,0.637,0.774C11.762,9.597,11.477,9.943,11.125,9.943z M13.074,11.772c-0.368,0-0.443-0.503-0.452-0.84
		c0.174,0.271,0.466,0.583,0.709,0.802C13.254,11.758,13.168,11.772,13.074,11.772z M13.667,11.827
		c-0.124,0-1.041-0.851-1.041-1.215c0-0.363,0.349-0.652,0.837-0.652c0.403,0,0.707,0.468,0.707,0.931
		C14.17,11.354,13.791,11.827,13.667,11.827z M15.643,9.435c-0.029,0.403-0.298,0.717-0.601,0.702
		c-0.302-0.015-0.524-0.352-0.495-0.755c0.005-0.062,0.016-0.123,0.031-0.18c0.049,0.045,0.11,0.072,0.178,0.069
		c0.146-0.004,0.261-0.141,0.256-0.305c-0.004-0.092-0.044-0.173-0.104-0.227c0.074-0.042,0.155-0.064,0.239-0.06
		C15.449,8.695,15.672,9.033,15.643,9.435z"/>
</g>
</svg>
