<?xml version="1.0" standalone="no"?> 
<!DOCTYPE svg PUBLIC "-//W3C//DTD SVG 1.1//EN" "http://www.w3.org/Graphics/SVG/1.1/DTD/svg11.dtd" >
<svg xmlns="http://www.w3.org/2000/svg">
<defs>
  <font id="Icons" horiz-adv-x="32">
    <font-face font-family="Icons"
      units-per-em="32" ascent="32"
      descent="0" />
    <missing-glyph horiz-adv-x="0" />
    <glyph glyph-name="bar-graph"
      unicode="&#xE001;"
      horiz-adv-x="20" d=" M17 19H15C14.448 19 14 18.553 14 18V1.008H18V18C18 18.553 17.553 19 17 19zM11 13H9C8.448 13 8 12.553 8 12V1.008H12V12C12 12.553 11.553 13 11 13zM5 7H3C2.448 7 2 6.553 2 6V1.008H6V6C6 6.553 5.553 7 5 7z" />
    <glyph glyph-name="book"
      unicode="&#xE002;"
      horiz-adv-x="20" d=" M17 14.05V3.699C17 3.177 16.548 2.928 16 2.539C15.56 2.226 15 2.614 15 3.126C15 3.126 15 13.031 15 13.24C15 13.451 14.926 13.652 14.686 13.775S6.948 17.84 6.948 17.84C6.827 17.885 6.299 18.218 5.595 17.856C4.926 17.512 4.562 17.138 4.469 16.962L12.649 12.48C12.866 12.366 13 12.19 13 11.964V1.162C13 0.932 12.858 0.686 12.631 0.577C12.527 0.525 12.412 0.5 12.298 0.5C12.163 0.5 12.027 0.533 11.912 0.604C11.697 0.735 4.138 5.37 3.639 5.671C3.399 5.815 3.118 6.11 3.112 6.329L3 16.615C3 16.813 2.977 17.162 3.289 17.647C3.986 18.731 6.418 19.964 7.649 19.325L16.648 14.77C16.865 14.658 17 14.434 17 14.05z" />
    <glyph glyph-name="check"
      unicode="&#xE003;"
      horiz-adv-x="24" d=" M21 19Q21.43 19 21.715 18.715T22 18Q22 17.578 21.711 17.289L9.711 5.289Q9.422 5 9 5T8.289 5.289L2.289 11.289Q2 11.578 2 12Q2 12.43 2.285 12.715T3 13Q3.422 13 3.711 12.711L9 7.414L20.289 18.711Q20.578 19 21 19z" />
    <glyph glyph-name="chevron-thin-down"
      unicode="&#xE004;"
      horiz-adv-x="20" d=" M17.418 13.891C17.69 14.159 18.127 14.159 18.397 13.891S18.668 13.19 18.397 12.922L10.489 5.092C10.219 4.824 9.782 4.824 9.51 5.092L1.602 12.922C1.332 13.19 1.332 13.623 1.602 13.891S2.311 14.159 2.581 13.891L10 6.75L17.418 13.891z" />
    <glyph glyph-name="chevron-thin-left"
      unicode="&#xE005;"
      horiz-adv-x="20" d=" M13.891 2.582C14.159 2.31 14.159 1.873 13.891 1.603S13.19 1.332 12.922 1.603L5.092 9.511C4.824 9.781 4.824 10.218 5.092 10.49L12.922 18.398C13.19 18.668 13.623 18.668 13.891 18.398S14.159 17.689 13.891 17.419L6.75 10L13.891 2.582z" />
    <glyph glyph-name="chevron-thin-right"
      unicode="&#xE006;"
      horiz-adv-x="20" d=" M13.25 10L6.109 17.42C5.841 17.69 5.841 18.127 6.109 18.399C6.377 18.669 6.81 18.669 7.078 18.399L14.908 10.491C15.176 10.22 15.176 9.782 14.908 9.512L7.078 1.604C6.81 1.333 6.377 1.334 6.109 1.604S5.841 2.311 6.109 2.583L13.25 10z" />
    <glyph glyph-name="chevron-thin-up"
      unicode="&#xE007;"
      horiz-adv-x="20" d=" M2.582 6.109C2.31 5.841 1.873 5.841 1.603 6.109S1.332 6.81 1.603 7.078L9.511 14.908C9.781 15.176 10.218 15.176 10.49 14.908L18.398 7.078C18.668 6.81 18.668 6.377 18.398 6.109S17.689 5.841 17.42 6.109L10 13.25L2.582 6.109z" />
    <glyph glyph-name="clock"
      unicode="&#xE008;"
      horiz-adv-x="24" d=" M12 23Q14.242 23 16.277 22.129T19.785 19.785T22.129 16.277T23 12T22.129 7.723T19.785 4.215T16.277 1.871T12 1T7.723 1.871T4.215 4.215T1.871 7.723T1 12T1.871 16.277T4.215 19.785T7.723 22.129T12 23zM12 21Q10.172 21 8.504 20.285T5.633 18.367T3.715 15.496T3 12T3.715 8.504T5.633 5.633T8.504 3.715T12 3T15.496 3.715T18.367 5.633T20.285 8.504T21 12T20.285 15.496T18.367 18.367T15.496 20.285T12 21zM12 19Q12.414 19 12.707 18.707T13 18V12.414L15.711 9.711Q16 9.422 16 9T15.711 8.289T15 8T14.289 8.289L11.289 11.289Q11 11.578 11 12V18Q11 18.414 11.293 18.707T12 19z" />
    <glyph glyph-name="cross"
      unicode="&#xE009;"
      horiz-adv-x="24" d=" M19 20Q19.43 20 19.715 19.715T20 19Q20 18.578 19.711 18.289L13.414 12L19.711 5.711Q20 5.422 20 5Q20 4.57 19.715 4.285T19 4Q18.578 4 18.289 4.289L12 10.586L5.711 4.289Q5.422 4 5 4Q4.57 4 4.285 4.285T4 5Q4 5.422 4.289 5.711L10.586 12L4.289 18.289Q4 18.578 4 19Q4 19.43 4.285 19.715T5 20Q5.422 20 5.711 19.711L12 13.414L18.289 19.711Q18.578 20 19 20z" />
    <glyph glyph-name="ellipsis"
      unicode="&#xE00A;"
      horiz-adv-x="24" d=" M20 15Q21.242 15 22.121 14.121T23 12T22.121 9.879T20 9T17.879 9.879T17 12T17.879 14.121T20 15zM4 15Q5.242 15 6.121 14.121T7 12T6.121 9.879T4 9T1.879 9.879T1 12T1.879 14.121T4 15zM4 13Q3.586 13 3.293 12.707T3 12T3.293 11.293T4 11T4.707 11.293T5 12T4.707 12.707T4 13zM12 15Q13.242 15 14.121 14.121T15 12T14.121 9.879T12 9T9.879 9.879T9 12T9.879 14.121T12 15zM12 13Q11.586 13 11.293 12.707T11 12T11.293 11.293T12 11T12.707 11.293T13 12T12.707 12.707T12 13zM20 13Q19.586 13 19.293 12.707T19 12T19.293 11.293T20 11T20.707 11.293T21 12T20.707 12.707T20 13z" />
    <glyph glyph-name="github-with-circle"
      unicode="&#xE00B;"
      horiz-adv-x="20" d=" M10.015 10.051C10.015 10.051 10.005 10.051 10 10.051H9.985C8.794 10.051 7.745 10.354 7.124 9.783C6.753 9.441 6.597 9.029 6.597 8.586C6.597 6.734 8.08 6.506 9.986 6.506H10.015C11.92 6.506 13.404 6.735 13.404 8.586C13.404 9.029 13.248 9.442 12.877 9.783C12.255 10.354 11.206 10.051 10.015 10.051zM8.393 7.52C8.03 7.52 7.737 7.928 7.737 8.43S8.03 9.338 8.393 9.338C8.756 9.338 9.05 8.932 9.05 8.43S8.757 7.52 8.393 7.52zM11.606 7.52C11.243 7.52 10.949 7.928 10.949 8.43S11.243 9.338 11.606 9.338C11.968 9.338 12.262 8.932 12.262 8.43S11.969 7.52 11.606 7.52zM10 19.6C4.698 19.6 0.4 15.302 0.4 10S4.698 0.4 10 0.4S19.6 4.698 19.6 10S15.302 19.6 10 19.6zM10.876 6.061C10.704 6.061 10.362 6.061 10 6.059C9.638 6.061 9.296 6.061 9.124 6.061C8.364 6.061 5.352 6.12 5.352 9.75C5.352 10.584 5.638 11.195 6.107 11.705C6.033 11.889 6.029 12.937 6.427 13.941C6.427 13.941 7.343 13.841 8.728 12.89C9.017 12.971 9.509 13.012 10 13.012S10.982 12.971 11.273 12.891C12.658 13.842 13.574 13.942 13.574 13.942C13.972 12.938 13.969 11.889 13.894 11.706C14.363 11.196 14.649 10.585 14.649 9.751C14.648 6.119 11.636 6.061 10.876 6.061z" />
    <glyph glyph-name="linkedin-with-circle"
      unicode="&#xE00C;"
      horiz-adv-x="20" d=" M10 19.6C4.698 19.6 0.4 15.302 0.4 10S4.698 0.4 10 0.4S19.6 4.698 19.6 10S15.302 19.6 10 19.6zM7.65 6.021H5.706V12.277H7.65V6.021zM6.666 13.045C6.052 13.045 5.655 13.48 5.655 14.018C5.655 14.567 6.064 14.989 6.691 14.989S7.702 14.567 7.714 14.018C7.714 13.48 7.318 13.045 6.666 13.045zM14.75 6.021H12.806V9.488C12.806 10.295 12.524 10.843 11.821 10.843C11.284 10.843 10.965 10.472 10.824 10.115C10.772 9.988 10.759 9.808 10.759 9.629V6.022H8.814V10.282C8.814 11.063 8.789 11.716 8.763 12.278H10.452L10.541 11.409H10.58C10.836 11.817 11.463 12.419 12.512 12.419C13.791 12.419 14.75 11.562 14.75 9.72V6.021z" />
    <glyph glyph-name="location-pin"
      unicode="&#xE00D;"
      horiz-adv-x="20" d=" M10 17.991C7.238 17.991 5 15.762 5 13.001C5 8.227 10 2.001 10 2.001S15 8.228 15 13.001C15 15.761 12.762 17.991 10 17.991zM10 10.24C8.508 10.24 7.3 11.449 7.3 12.94S8.508 15.64 10 15.64C11.49 15.64 12.699 14.431 12.699 12.94S11.49 10.24 10 10.24z" />
    <glyph glyph-name="menu"
      unicode="&#xE00E;"
      horiz-adv-x="24" d=" M3 19H21Q21.414 19 21.707 18.707T22 18T21.707 17.293T21 17H3Q2.586 17 2.293 17.293T2 18T2.293 18.707T3 19zM3 7H21Q21.414 7 21.707 6.707T22 6T21.707 5.293T21 5H3Q2.586 5 2.293 5.293T2 6T2.293 6.707T3 7zM3 13H21Q21.414 13 21.707 12.707T22 12T21.707 11.293T21 11H3Q2.586 11 2.293 11.293T2 12T2.293 12.707T3 13z" />
    <glyph glyph-name="minus"
      unicode="&#xE00F;"
      horiz-adv-x="24" d=" M3 13H21Q21.414 13 21.707 12.707T22 12T21.707 11.293T21 11H3Q2.586 11 2.293 11.293T2 12T2.293 12.707T3 13z" />
    <glyph glyph-name="pencil"
      unicode="&#xE010;"
      horiz-adv-x="20" d=" M14.69 17.339C12.796 18.718 11.448 18.688 10.936 18.605C10.792 18.582 10.671 18.499 10.586 18.382L3.703 8.885C3.426 8.503 3.266 8.049 3.241 7.578L2.945 1.954C2.924 1.549 3.327 1.256 3.705 1.401L8.961 3.411C9.404 3.581 9.789 3.876 10.067 4.26L16.947 13.754C17.036 13.877 17.072 14.027 17.047 14.177C16.963 14.703 16.56 15.979 14.69 17.339zM8.977 4.535L6.934 3.746C6.854 3.715 6.765 3.74 6.713 3.808C6.45 4.143 6.137 4.475 5.638 4.838C5.139 5.2 4.727 5.396 4.328 5.544C4.248 5.574 4.197 5.65 4.202 5.736L4.324 7.922L4.873 8.677C4.873 8.677 6.102 8.846 7.706 7.679C9.308 6.513 9.527 5.291 9.527 5.291L8.977 4.535z" />
    <glyph glyph-name="plus"
      unicode="&#xE011;"
      horiz-adv-x="24" d=" M12 22Q12.414 22 12.707 21.707T13 21V13H21Q21.414 13 21.707 12.707T22 12T21.707 11.293T21 11H13V3Q13 2.586 12.707 2.293T12 2T11.293 2.293T11 3V11H3Q2.586 11 2.293 11.293T2 12T2.293 12.707T3 13H11V21Q11 21.414 11.293 21.707T12 22z" />
    <glyph glyph-name="price-tag"
      unicode="&#xE012;"
      horiz-adv-x="20" d=" M19.388 19.595C19.277 19.909 18.934 20.075 18.619 19.966S18.138 19.511 18.247 19.196C19.176 16.526 17.332 14.532 15.926 13.464L15.358 14.278C15.167 14.551 14.74 14.778 14.408 14.782L11.22 14.768C10.888 14.774 10.395 14.622 10.123 14.43L0.729 7.843C0.274 7.523 0.164 6.896 0.482 6.439L4.751 0.331C5.071 -0.124 5.582 -0.069 6.038 0.249L15.432 6.837C15.702 7.028 16.014 7.44 16.124 7.755L17.122 10.9C17.232 11.214 17.165 11.693 16.974 11.966L16.628 12.462C18.516 13.909 20.476 16.466 19.388 19.595zM15.017 10.237C14.29 9.727 13.286 9.905 12.777 10.633C12.266 11.363 12.444 12.367 13.172 12.879C13.75 13.284 14.5 13.255 15.04 12.862C14.768 12.698 14.581 12.602 14.546 12.587C14.245 12.444 14.116 12.083 14.258 11.782C14.362 11.563 14.579 11.434 14.805 11.434C14.891 11.434 14.979 11.454 15.062 11.493C15.256 11.585 15.464 11.694 15.681 11.823C15.778 11.229 15.542 10.606 15.017 10.237z" />
    <glyph glyph-name="search"
      unicode="&#xE013;"
      horiz-adv-x="24" d=" M10 23Q11.828 23 13.496 22.285T16.367 20.367T18.285 17.496T19 14Q19 12.43 18.488 10.992T17.031 8.383L22.711 2.711Q23 2.422 23 2Q23 1.57 22.715 1.285T22 1Q21.578 1 21.289 1.289L15.617 6.969Q14.445 6.024 13.008 5.512T10 5Q8.172 5 6.504 5.715T3.633 7.633T1.715 10.504T1 14T1.715 17.496T3.633 20.367T6.504 22.285T10 23zM10 21Q8.578 21 7.281 20.445T5.047 18.953T3.555 16.719T3 14T3.555 11.281T5.047 9.047T7.281 7.555T10 7T12.719 7.555T14.953 9.047T16.445 11.281T17 14T16.445 16.719T14.953 18.953T12.719 20.445T10 21z" />
    <glyph glyph-name="skype-with-circle"
      unicode="&#xE014;"
      horiz-adv-x="20" d=" M12.164 10.148C11.934 10.302 11.65 10.435 11.323 10.543C11 10.65 10.635 10.748 10.236 10.836C9.922 10.91 9.693 10.969 9.557 11.008C9.424 11.045 9.291 11.098 9.161 11.166C9.037 11.23 8.938 11.307 8.868 11.395C8.803 11.477 8.77 11.575 8.77 11.69C8.77 11.878 8.87 12.036 9.075 12.174C9.287 12.317 9.574 12.389 9.926 12.389C10.306 12.389 10.582 12.325 10.747 12.196C10.917 12.063 11.065 11.874 11.187 11.634C11.293 11.446 11.388 11.316 11.481 11.234C11.58 11.144 11.722 11.097 11.904 11.097C12.105 11.097 12.274 11.169 12.409 11.314C12.543 11.457 12.611 11.621 12.611 11.802C12.611 11.99 12.558 12.185 12.457 12.378S12.195 12.757 11.98 12.931C11.765 13.105 11.493 13.243 11.169 13.347C10.847 13.451 10.46 13.503 10.022 13.503C9.472 13.503 8.987 13.425 8.579 13.269C8.166 13.111 7.845 12.881 7.625 12.586C7.403 12.289 7.291 11.945 7.291 11.563C7.291 11.163 7.398 10.823 7.609 10.551C7.816 10.283 8.101 10.069 8.453 9.914C8.799 9.764 9.231 9.631 9.742 9.518C10.116 9.438 10.42 9.36 10.643 9.288C10.857 9.22 11.034 9.12 11.168 8.991C11.295 8.868 11.357 8.712 11.357 8.51C11.357 8.258 11.238 8.053 10.994 7.879C10.743 7.703 10.41 7.615 10.004 7.615C9.708 7.615 9.469 7.658 9.29 7.746C9.113 7.832 8.975 7.941 8.878 8.072C8.777 8.209 8.683 8.383 8.596 8.588C8.518 8.777 8.42 8.922 8.307 9.022C8.19 9.126 8.043 9.176 7.875 9.176C7.668 9.176 7.496 9.11 7.361 8.981C7.225 8.848 7.156 8.688 7.156 8.502C7.156 8.207 7.262 7.898 7.471 7.59C7.678 7.281 7.95 7.033 8.281 6.85C8.743 6.598 9.335 6.471 10.041 6.471C10.629 6.471 11.145 6.565 11.577 6.748C12.012 6.934 12.348 7.197 12.575 7.527C12.803 7.859 12.919 8.24 12.919 8.656C12.919 9.004 12.852 9.304 12.719 9.547S12.399 9.99 12.164 10.148zM10 19.6C4.698 19.6 0.4 15.302 0.4 10S4.698 0.4 10 0.4S19.6 4.698 19.6 10S15.302 19.6 10 19.6zM12.301 4.625C11.814 4.625 11.355 4.75 10.953 4.973C10.662 4.916 10.361 4.887 10.053 4.887C7.34 4.887 5.139 7.153 5.139 9.944C5.139 10.294 5.174 10.634 5.239 10.962C4.99 11.396 4.847 11.902 4.847 12.443C4.847 14.062 6.123 15.377 7.698 15.377C8.255 15.377 8.774 15.211 9.214 14.926C9.486 14.975 9.768 15 10.053 15C12.768 15 14.968 12.736 14.968 9.943C14.968 9.572 14.929 9.209 14.855 8.859C15.044 8.466 15.151 8.025 15.151 7.556C15.15 5.938 13.875 4.625 12.301 4.625z" />
    <glyph glyph-name="spinner2"
      unicode="&#xE015;"
      horiz-adv-x="32" d=" M32 16C31.96 18.089 31.507 20.172 30.669 22.077C29.835 23.983 28.623 25.71 27.136 27.137C25.65 28.565 23.888 29.694 21.98 30.439C20.074 31.187 18.024 31.544 15.999 31.5C13.974 31.46 11.957 31.02 10.114 30.208C8.269 29.399 6.597 28.225 5.216 26.784S2.742 23.637 2.023 21.79C1.301 19.944 0.956 17.961 1 16C1.04 14.039 1.468 12.089 2.254 10.306C3.038 8.522 4.175 6.905 5.57 5.57C6.964 4.234 8.616 3.179 10.402 2.485C12.187 1.788 14.103 1.457 16 1.5C17.897 1.54 19.78 1.955 21.502 2.716C23.225 3.475 24.787 4.575 26.076 5.924C27.366 7.272 28.384 8.869 29.053 10.594C29.46 11.64 29.737 12.731 29.882 13.838C29.921 13.836 29.96 13.834 30 13.834C31.105 13.834 32 14.729 32 15.834C32 15.89 31.997 15.946 31.993 16.001H32zM28.822 10.689C28.089 9.026 27.026 7.52 25.723 6.277S22.879 4.052 21.215 3.409C19.552 2.763 17.768 2.457 16 2.5C14.231 2.541 12.481 2.929 10.881 3.64C9.279 4.348 7.828 5.374 6.631 6.631S4.49 9.374 3.871 10.977C3.25 12.58 2.958 14.296 3 16.001C3.041 17.706 3.417 19.389 4.102 20.929C4.785 22.47 5.774 23.866 6.985 25.017S9.627 27.075 11.169 27.669C12.711 28.265 14.361 28.544 16.001 28.502C17.642 28.461 19.258 28.098 20.737 27.438C22.217 26.78 23.557 25.829 24.663 24.664S26.638 22.124 27.206 20.643C27.776 19.162 28.043 17.579 28 16.002H28.007C28.002 15.947 28 15.892 28 15.835C28 14.803 28.781 13.955 29.784 13.847C29.589 12.759 29.267 11.696 28.822 10.691z" />
    <glyph glyph-name="trash"
      unicode="&#xE016;"
      horiz-adv-x="20" d=" M3.389 12.887L4.49 1.979C4.551 1.518 6.777 0.002 10 0C13.225 0.002 15.451 1.518 15.511 1.979L16.613 12.887C14.929 11.945 12.412 11.5 10 11.5C7.59 11.5 5.072 11.945 3.389 12.887zM13.168 18.49L12.309 19.441C11.977 19.914 11.617 20 10.916 20H9.085C8.385 20 8.024 19.914 7.693 19.441L6.834 18.49C4.264 18.041 2.4 16.85 2.4 15.971V15.801C2.4 14.254 5.803 13 10 13C14.198 13 17.601 14.254 17.601 15.801V15.971C17.601 16.85 15.738 18.041 13.168 18.49zM12.07 15.66L11 17H9L7.932 15.66H6.232C6.232 15.66 8.094 17.881 8.343 18.182C8.533 18.412 8.727 18.5 8.979 18.5H11.022C11.275 18.5 11.469 18.412 11.659 18.182C11.907 17.881 13.77 15.66 13.77 15.66H12.07z" />
    <glyph glyph-name="twitter-with-circle"
      unicode="&#xE017;"
      horiz-adv-x="20" d=" M10 19.6C4.698 19.6 0.4 15.302 0.4 10S4.698 0.4 10 0.4S19.6 4.698 19.6 10S15.302 19.6 10 19.6zM13.905 11.736C13.909 11.654 13.91 11.572 13.91 11.492C13.91 8.992 12.009 6.111 8.531 6.111C7.463 6.111 6.469 6.423 5.633 6.961C5.78 6.943 5.931 6.936 6.084 6.936C6.97 6.936 7.785 7.237 8.432 7.745C7.605 7.761 6.907 8.307 6.666 9.057C6.781 9.036 6.899 9.024 7.021 9.024C7.193 9.024 7.361 9.047 7.519 9.09C6.654 9.264 6.002 10.028 6.002 10.944V10.967C6.257 10.826 6.549 10.74 6.859 10.73C6.351 11.07 6.018 11.648 6.018 12.305C6.018 12.651 6.111 12.977 6.274 13.256C7.207 12.112 8.599 11.36 10.171 11.279C10.138 11.418 10.122 11.562 10.122 11.711C10.122 12.754 10.968 13.602 12.013 13.602C12.556 13.602 13.048 13.372 13.393 13.004C13.824 13.09 14.228 13.246 14.593 13.463C14.452 13.022 14.153 12.651 13.762 12.416C14.145 12.463 14.509 12.564 14.848 12.715C14.595 12.336 14.274 12.002 13.905 11.736z" />
  </font>
</defs>
</svg>
